<?xml version="1.0" encoding="UTF-8"?>
<svg xmlns="http://www.w3.org/2000/svg" width="64" height="64" viewBox="0 0 64 64" fill="none">
  <rect width="64" height="64" fill="#0F100F"></rect>
  <path d="M34.3864 31.7155C34.3864 31.5375 34.3864 31.5375 34.3864 31.7155C34.0304 31.5375 34.0305 31.1815 33.6745 31.3595C33.4965 31.5375 33.4965 31.8935 33.4965 32.0715C33.4965 32.4275 33.4965 32.9615 33.4965 33.3175C34.2084 33.8515 35.8104 34.3854 36.1664 34.3854C36.5224 34.3854 36.5224 34.0294 36.3444 33.8514C36.3444 33.6735 36.1664 33.4955 36.1664 33.4955C35.9884 33.3175 35.8104 33.3175 35.8104 33.1395L35.6324 32.9615C35.0984 32.6055 34.5644 32.2495 34.3864 31.7155Z" fill="#75471B"></path>
  <path d="M57.7039 30.2915C57.5259 28.3336 57.17 26.7316 56.992 25.8416C55.39 20.5017 52.5421 16.2298 47.5582 13.3819C44.5322 11.7799 41.3283 10.8899 38.1244 10.7119C37.5904 10.7119 36.7004 10.7119 35.8104 10.7119C39.1923 10.8899 42.2183 11.7799 45.2442 13.3819C50.2281 16.2298 53.076 20.5017 54.678 25.8416C54.856 26.7316 55.212 28.3336 55.39 30.2915C55.746 34.5634 55.212 38.6573 53.432 42.5732C53.076 43.4632 52.5421 44.3532 52.0081 45.2432C52.3641 45.4212 52.72 45.5992 53.076 45.7772C53.61 46.1332 53.966 46.1332 54.322 45.5992C54.856 44.7092 55.39 43.6412 55.924 42.5732C57.5259 38.6573 58.0599 34.5634 57.7039 30.2915Z" fill="#75471B"></path>
  <path d="M41.5063 29.9355C41.1503 30.1135 40.9723 30.6475 40.7943 31.0035C40.9723 31.1815 40.9723 31.3595 41.1503 31.5375C41.5063 33.6734 42.3963 35.6314 42.3963 37.9453C42.5743 37.7674 42.5743 37.7673 42.5743 37.5893C42.9303 35.9874 43.6422 34.5634 43.6422 32.9615C43.6422 32.7835 43.6422 32.4275 43.8202 32.2495C43.8202 31.8935 43.6422 31.7155 43.6422 31.3595C42.5743 29.7575 41.6843 29.9355 41.5063 29.9355Z" fill="#75471B"></path>
  <path d="M36.7004 31.1815C37.0564 33.3175 37.9464 35.2754 37.9464 37.5894C38.1244 37.4114 38.1244 37.4114 38.1244 37.2334C38.4804 35.6314 39.1924 34.2075 39.1924 32.6055C39.1924 31.8935 39.3704 31.3595 40.0823 30.8255C40.9723 30.2916 41.8623 29.9356 42.7523 29.4016C43.6423 28.8676 44.5322 28.3336 45.0662 27.4436C45.7782 26.5536 45.6002 25.3077 44.5322 24.7737C43.9982 24.4177 43.2863 24.0617 42.5743 23.8837C41.3283 23.5277 40.0823 23.3497 38.6584 23.1717C38.3024 23.1717 37.7684 22.9937 37.7684 22.6377C37.5904 22.1037 37.4124 21.7477 37.2344 21.2138C36.3444 18.7218 35.0984 16.5859 32.6065 15.3399C31.5385 14.8059 30.4706 14.6279 29.2246 14.6279C29.0466 14.4499 24.2407 14.9839 24.2407 14.9839C22.8167 15.3399 21.5707 15.8739 20.5028 16.9418C18.5448 18.7218 18.0108 21.0358 18.0108 23.5277C18.0108 24.5957 18.5448 24.9517 19.6128 24.5957C22.1047 23.8837 24.7747 23.3497 27.4446 23.1717C27.8006 23.1717 28.1566 22.9937 28.3346 23.3497C28.3346 23.7057 27.8006 23.7057 27.6226 23.8837C25.8427 24.0617 23.8847 24.4177 22.1047 24.9517C20.5028 25.3077 19.0788 25.8417 17.6548 26.3756C17.4768 26.3756 14.9849 27.6216 13.7389 28.5116C13.5609 28.6896 13.3829 28.8676 12.493 29.5796C11.603 30.2915 11.603 31.7155 12.493 32.4275C13.3829 33.1395 14.2729 33.3175 15.3409 33.6735C15.8749 33.8515 17.8328 34.2075 18.0108 34.0295C18.1888 34.0295 18.3668 34.0295 18.7228 34.0295C19.2568 34.2075 19.4348 34.5635 19.6128 35.0975C19.6128 35.4534 19.7908 35.9874 19.9688 36.3434C20.1468 37.2334 20.5028 37.9454 21.0368 38.6574C21.3928 39.0134 21.7487 39.3694 21.9267 39.9033C22.8167 42.0393 24.0627 43.8193 26.1986 44.8872C26.5546 45.5992 26.3766 46.1332 25.8427 46.6672C25.3087 47.2012 24.9527 47.9132 24.9527 48.8031C24.9527 49.6931 24.7747 50.5831 24.2407 51.2951C23.8847 51.8291 23.3507 52.3631 23.1727 52.8971L22.9947 53.0751C22.6387 53.253 22.4607 53.609 22.2827 53.965C21.9267 54.321 21.5707 54.677 21.0368 54.499C18.3668 53.787 15.8749 52.5411 13.7389 50.7611C11.247 48.8031 9.46702 46.4892 8.22105 43.6413C6.44109 39.7253 5.7291 35.6314 6.08509 30.8255C6.26309 29.9356 7.50906 23.5277 9.28902 20.8578C10.713 18.3658 12.4929 16.4079 14.8069 14.6279C17.1208 12.8479 19.6128 11.602 22.4607 10.89C25.1307 10.178 29.0466 10 31.0045 10C34.3865 10.178 37.5904 10.89 40.4383 12.6699C45.4222 15.5179 48.2702 19.7898 49.8721 25.1297C50.0501 26.0196 50.4061 27.6216 50.5841 29.5796C50.9401 33.8515 50.4061 37.9454 48.6261 41.8613C48.0922 42.9293 47.7362 43.8193 47.0242 44.8872C46.6682 45.4212 46.3122 45.5992 45.7782 45.0652C45.2442 44.7092 44.7102 44.3532 44.1762 44.3532C42.0403 44.1752 42.3963 44.1753 41.5063 42.2173V42.0393C41.3283 41.5053 40.9723 41.1493 40.4383 40.6153C40.0823 40.2593 39.5483 40.2593 39.1924 40.4373C38.8364 40.6153 39.0144 40.9713 39.0144 41.3273C39.0144 42.2173 38.8364 43.1073 38.4804 43.9973C38.1244 44.7092 37.5904 45.2432 37.2344 45.9552C37.2344 45.9552 37.2344 45.9552 37.2344 46.1332C37.2344 46.1332 37.2344 46.1332 37.0564 46.1332C35.6324 47.7352 33.6745 49.1591 32.0725 50.5831C31.5385 50.9391 31.0045 51.2951 30.8265 52.0071L30.6486 52.1851C30.2926 52.3631 30.1146 52.7191 29.9366 53.0751C29.9366 53.253 29.7586 53.609 29.5806 53.609C29.2246 53.609 29.0466 53.431 29.0466 53.0751C28.6906 52.0071 28.1566 50.9391 27.9786 49.8711C27.8006 48.9811 27.9786 48.6251 28.8686 48.2691C30.1146 47.7352 31.1825 47.2012 32.4285 46.4892C34.3865 45.4212 35.9884 43.9972 36.8784 41.8613C37.0564 41.5053 37.0564 41.1493 37.0564 40.6153C37.0564 40.4373 37.0564 40.0813 36.8784 40.0813C36.5224 40.0813 36.5224 40.2593 36.3444 40.4373C35.9884 41.1493 35.4544 41.5053 34.9204 42.0393C33.8525 42.7513 32.7845 42.9293 31.7165 43.1073C31.0045 43.2853 30.2926 43.2853 29.5806 42.7513C29.2246 42.5733 28.8686 42.2173 29.0466 41.8613C29.0466 41.3273 29.2246 40.9713 29.7586 40.7933C29.9366 40.6153 30.2926 40.6153 30.4705 40.4373C30.6485 40.2593 30.8265 40.2593 30.8265 40.0813C30.8265 39.9033 30.4706 39.7253 30.2926 39.9033C29.9366 39.9033 29.5806 39.9033 29.2246 39.9033C28.8686 39.9033 28.6906 39.9033 28.5126 39.5474C28.5126 39.1914 28.8686 39.1914 29.0466 39.1914C29.7586 38.8354 30.6486 39.0134 31.5385 39.1914C31.8945 39.1914 32.4285 39.3694 32.4285 38.8354C32.4285 38.4794 32.0725 38.3014 31.7165 38.3014H31.5385C30.4706 38.3014 29.4026 37.9454 28.3346 38.3014C27.9786 38.3014 27.6226 38.4794 27.6226 38.1234C27.4446 37.7674 27.9786 37.7674 28.1566 37.5894C28.1566 37.5894 28.1566 37.5894 28.3346 37.5894C28.6906 37.5894 28.8686 37.4114 29.0466 37.2334C29.2246 36.8774 29.5806 36.5214 29.9366 36.1654C30.1146 35.9874 30.2926 35.8094 30.1146 35.6314C29.9366 35.4534 29.7586 35.2754 29.4026 35.2754C29.0466 35.2754 28.5126 35.2754 28.1566 35.2754C27.6226 35.2754 27.4446 35.0974 27.4446 34.5635C27.2666 33.4955 27.4446 32.4275 27.2666 31.3595C27.2666 31.1815 27.0886 30.8255 27.4446 30.6476C27.8006 30.4696 27.8006 30.8255 28.1566 31.0035C28.1566 31.0035 28.1566 31.0035 28.1566 31.1815C28.3346 31.7155 28.8686 32.0715 29.4026 32.4275L29.5806 32.6055C29.9366 33.1395 32.0725 34.0295 32.6065 33.8515C32.9625 33.8515 32.9625 33.4955 32.7845 33.3175C32.4285 32.6055 32.4285 32.2495 33.1405 31.8935C33.6745 31.5375 34.0305 31.1815 34.3865 30.6476C34.7425 30.2916 34.7425 29.7576 35.2764 29.4016C34.7425 29.7576 35.6324 29.4016 36.7004 31.1815Z" fill="#FDF1B4"></path>
</svg>
