<?xml version="1.0" encoding="UTF-8"?>
<svg xmlns="http://www.w3.org/2000/svg" width="260" height="85" viewBox="0 0 260 85" fill="none">
  <path d="M155.603 30.1829C160.649 26.9099 166.649 27.0463 171.013 30.7284C171.832 31.4103 172.241 31.4103 173.059 30.7284C177.832 26.228 190.379 26.5008 193.379 34.956C193.924 36.5925 194.334 38.3654 194.334 40.1383C194.334 44.5023 194.334 49.0026 194.334 53.3666C194.334 54.4576 194.061 54.8668 192.833 55.0031C188.197 55.1395 188.197 55.2759 188.197 50.5028C188.197 47.2298 188.197 43.9568 188.197 40.5474C188.06 35.5015 183.969 32.774 179.196 34.2741C176.468 35.0924 174.968 37.2744 174.968 40.5474C174.968 44.775 174.832 48.8663 174.968 53.0939C174.968 54.594 174.559 54.8668 173.059 54.8668C168.831 54.8668 168.831 54.8668 168.831 50.6391C168.831 47.2298 168.968 43.8204 168.695 40.5474C168.559 36.3198 166.24 34.1378 162.558 34.0014C158.876 33.865 156.694 35.5015 156.285 39.32C155.739 43.8204 156.149 48.4571 156.149 52.9575C156.149 54.594 155.876 55.1395 154.103 55.0031C150.012 54.8668 150.012 55.0031 150.012 50.9119C150.012 44.2295 150.148 37.5471 150.012 30.8648C150.012 28.8191 150.557 28.2736 152.466 28.5464C153.012 28.6828 153.557 28.5464 153.967 28.5464C155.058 28.2736 155.739 28.6828 155.603 30.1829Z" fill="black"></path>
  <path d="M253.937 30.3195C254.619 29.9104 253.665 28.4103 254.892 28.4103C256.529 28.4103 258.165 28.0011 259.665 28.683C259.938 28.8194 259.938 29.6376 259.938 30.1831C259.938 37.9565 260.074 45.5935 259.938 53.3669C259.802 61.9585 254.483 67.0044 245.891 66.5953C244.391 66.5953 243.027 66.1862 241.527 66.1862C239.345 66.3225 238.8 65.3679 238.8 63.1859C238.8 61.0039 239.209 60.1857 241.527 60.4584C243.573 60.7312 245.755 60.5948 247.937 60.4584C252.028 60.0493 254.483 56.7763 253.937 52.685C253.801 51.4577 253.392 51.7304 252.574 52.1395C243.709 57.1854 233.89 51.7304 233.754 41.5023C233.754 38.502 234.027 35.5018 235.8 32.9106C238.936 28.1375 247.391 26.6374 252.71 29.774C253.119 29.9104 253.392 30.4559 253.937 30.3195ZM246.846 49.0029C251.755 49.0029 254.21 46.2754 254.21 40.8204C254.21 35.5018 251.619 32.6379 246.846 32.6379C242.073 32.6379 239.482 35.5018 239.482 40.8204C239.618 46.2754 242.073 49.0029 246.846 49.0029Z" fill="black"></path>
  <path d="M112.38 51.4572C108.426 54.5938 104.062 54.1847 99.5612 52.821C96.561 51.8663 94.379 49.8207 93.288 46.8205C92.0606 43.2747 92.0606 39.729 92.8789 36.1832C93.9699 32.092 96.561 29.6372 100.652 28.6826C104.471 27.8643 108.426 27.5916 111.835 30.1827C112.38 30.5918 112.653 30.7282 112.926 29.91C113.881 27.1825 116.063 28.819 117.699 28.6826C119.063 28.5462 118.381 30.1827 118.381 31.001C118.381 38.3652 118.381 45.8658 118.381 53.2301C118.381 61.8217 113.335 66.7312 104.743 66.5948C102.971 66.5948 101.198 66.1857 99.4249 66.1857C97.5156 66.1857 97.1065 65.5038 97.1065 63.731C97.2429 60.5943 97.1065 60.5944 100.379 60.5944C101.88 60.5944 103.516 60.5944 105.016 60.5944C110.744 60.3216 113.335 57.0486 112.38 51.4572ZM113.062 40.82C113.062 40.6836 113.062 40.2745 113.062 39.8653C112.79 35.0922 110.471 32.6375 105.971 32.6375C101.607 32.5011 99.2885 34.6831 98.6066 39.3198C98.3339 40.6836 98.6066 42.0473 98.743 43.4111C99.2885 46.8205 101.47 48.7297 104.88 49.0025C110.198 49.4116 112.926 46.6841 113.062 40.82Z" fill="black"></path>
  <path d="M45.0046 41.3662C45.0046 48.3213 42.6862 52.6853 37.0949 54.4582C32.3217 55.9583 27.4122 55.9583 22.7755 53.6399C22.23 53.3672 21.6845 53.0944 21.2754 52.6853C16.0931 47.9122 16.2295 41.9117 17.7296 35.7748C18.957 30.8653 22.6391 28.5469 27.4122 27.7287C29.4579 27.4559 31.5035 27.3195 33.5491 27.5923C41.4589 28.5469 45.0046 33.0473 45.0046 41.3662ZM31.0944 49.0032C36.2766 49.0032 38.7314 46.5484 38.7314 41.3662C38.7314 36.3203 36.2766 33.8655 31.0944 33.8655C25.7757 33.8655 23.321 36.3203 23.321 41.3662C23.321 46.5484 25.9121 49.0032 31.0944 49.0032Z" fill="#DF4D1F"></path>
  <path d="M75.9697 27.5913C77.3335 27.7277 78.4245 27.7277 79.5155 27.8641C85.7887 28.546 89.6072 32.5008 90.1527 38.7741C90.4255 42.4562 90.5618 46.1383 88.6526 49.5477C86.0615 54.3208 81.6975 55.4118 76.788 55.5482C65.3325 55.8209 61.514 49.275 62.4686 39.3196C63.1505 31.5462 68.06 27.5913 75.9697 27.5913ZM68.7418 41.7743C68.7418 46.6838 71.333 49.275 76.3788 49.275C81.4247 49.275 84.1522 46.6838 84.1522 41.6379C84.1522 36.5921 81.5611 34.001 76.3788 34.001C71.1966 34.001 68.6055 36.4557 68.7418 41.7743Z" fill="#DF4D1F"></path>
  <path d="M146.885 41.6385C146.885 45.5933 146.885 49.4119 146.885 53.3667C146.885 54.5941 146.476 55.0032 145.249 55.0032C144.021 54.8669 142.112 55.5487 141.567 54.8668C139.794 52.6848 138.294 54.5941 136.793 54.7305C133.793 55.1396 130.793 55.0032 127.929 54.0486C124.929 53.094 122.61 51.1847 121.519 48.0481C119.883 43.4113 119.883 38.7746 121.656 34.2742C122.61 31.9558 124.247 30.3193 126.565 29.3647C131.066 27.5918 135.566 27.1827 140.066 29.3647C140.476 29.5011 141.021 30.183 141.157 29.2283C141.43 28.1373 142.248 28.4101 142.93 28.4101C146.749 28.2737 146.749 28.2737 146.749 32.0922C146.885 35.3652 146.885 38.5018 146.885 41.6385ZM141.157 41.093C141.157 38.5018 140.885 35.7743 138.294 34.1378C135.566 32.365 132.429 32.365 129.702 34.0015C126.156 36.1835 126.293 39.8656 126.565 43.4113C126.838 46.2752 128.065 48.5936 131.066 49.5482C131.338 49.6846 131.611 49.6846 131.884 49.6846C137.884 50.912 141.157 47.9117 141.157 41.093Z" fill="black"></path>
  <path d="M206.203 41.6384C206.203 37.6835 206.203 33.8651 206.203 29.9102C206.203 28.8192 206.476 28.2737 207.703 28.41C209.203 28.6828 211.113 27.319 212.204 29.501C212.204 29.501 212.885 29.2283 213.158 29.0919C222.295 24.8643 231.16 29.9102 231.705 39.8655C231.978 44.3659 231.705 49.0027 231.842 53.503C231.842 54.594 231.432 54.8668 230.478 54.8668C225.705 55.0032 225.705 55.1396 225.705 50.2301C225.705 47.0934 225.841 43.9568 225.705 40.8202C225.568 36.4562 223.386 34.1378 219.568 33.865C215.204 33.5923 212.613 36.047 212.476 40.4111C212.476 44.6387 212.476 48.8663 212.476 53.2303C212.476 54.4577 212.204 54.8668 210.84 54.8668C206.203 54.8668 206.203 55.0032 206.203 50.3664C206.203 47.5026 206.203 44.5023 206.203 41.6384Z" fill="black"></path>
  <path d="M2.59113 41.0921C2.59113 39.7283 2.59113 38.3646 2.59113 36.8645C2.59113 35.6371 2.7275 34.4097 0.954621 34.4097C0.272746 34.4097 0 33.7278 0 33.1823C0 31.955 0 30.7276 0 29.5002C0 28.9547 0.136371 28.2728 0.954621 28.2728C2.59112 28.4092 2.59113 27.3182 2.59113 26.0908C2.7275 21.3177 2.7275 21.3177 7.50063 21.7268C8.728 21.8632 9.00075 22.2723 9.00075 23.3633C9.13713 24.9998 8.1825 26.9091 9.54625 28.0001C10.6373 28.9547 12.5465 28.2728 14.0466 28.2728C15.1376 28.2728 15.6831 28.5456 15.6831 29.773C15.6831 35.7735 16.365 34.6825 11.0464 34.6825C9.40988 34.6825 8.86438 35.228 8.86438 36.8645C9.00075 40.2738 9.00075 43.5468 8.86438 46.9562C8.86438 48.8655 9.54625 49.8201 11.5919 49.8201C11.8646 49.8201 12.1374 49.8201 12.4101 49.8201C15.4104 49.8201 16.365 51.0475 15.5468 54.0477C15.4104 54.5932 15.1376 54.866 14.4558 55.0023C8.45525 55.8206 3.13663 52.9567 2.59113 46.4107C2.59113 44.5015 2.7275 42.865 2.59113 41.0921C2.7275 41.0921 2.7275 41.0921 2.59113 41.0921Z" fill="#DF4D1F"></path>
  <path d="M54.4184 41.7738C54.4184 43.5467 54.4184 45.456 54.4184 47.2288C54.4184 48.8653 55.1003 49.5472 56.6004 49.5472C57.0095 49.5472 57.4186 49.5472 57.9641 49.5472C61.1008 49.5472 60.9644 49.5472 61.1008 52.6838C61.1008 54.3203 60.4189 54.8658 58.9188 54.8658C52.2364 55.2749 48.0088 51.4564 48.0088 44.6377C48.0088 41.9102 48.0088 39.0463 48.0088 36.3188C48.0088 35.6369 48.1451 34.6823 47.0541 34.6823C45.2813 34.6823 45.2812 33.4549 45.2812 32.2276C45.2812 31.4093 45.2812 30.4547 45.2812 29.6364C45.2812 29.0909 45.2813 28.4091 45.8268 28.4091C48.5543 28.4091 47.736 26.4998 47.8724 24.9997C48.0088 23.9087 47.3269 22.4086 48.4179 21.9994C50.0544 21.4539 51.9636 21.5903 53.6001 21.9994C54.4184 22.2722 54.1456 23.2268 54.1456 23.9087C54.282 28.2727 54.282 28.2727 58.5096 28.2727C60.2825 28.2727 61.2371 28.6818 60.828 30.5911C60.828 30.8638 60.828 31.1366 60.828 31.4093C60.828 34.6823 60.828 34.6823 57.555 34.6823C54.1456 34.6823 54.1456 34.1368 54.1456 37.9553C54.4184 39.1827 54.4184 40.4101 54.4184 41.7738Z" fill="#DF4D1F"></path>
  <path d="M203.336 41.7735C203.336 45.592 203.336 49.4105 203.336 53.229C203.336 54.5927 202.927 55.0018 201.563 55.0018C197.199 55.0018 197.199 55.1382 197.199 50.6379C197.199 43.9555 197.199 37.1367 197.199 30.4543C197.199 28.9542 197.608 28.4087 199.108 28.5451C203.2 28.5451 203.2 28.5451 203.2 32.6363C203.336 35.6366 203.336 38.6368 203.336 41.7735Z" fill="black"></path>
  <path d="M200.334 25.9551C198.425 25.9551 196.788 24.5914 196.652 22.6821C196.516 20.7729 198.288 19 200.198 19C202.107 19 203.743 20.5001 203.88 22.4094C203.88 24.3186 202.38 25.9551 200.334 25.9551Z" fill="#DF4D1F"></path>
</svg>
