<?xml version="1.0" encoding="UTF-8"?>
<svg xmlns="http://www.w3.org/2000/svg" width="64" height="64" viewBox="0 0 64 64" fill="none">
  <rect width="64" height="64" fill="#0D0D0D"></rect>
  <path d="M13.7624 41.9027C13.7104 42.54 13.9192 42.9968 14.3504 43.345C15.0926 43.945 15.9797 44.1528 16.9041 44.2057C19.869 44.3753 22.5513 43.5292 25.0166 41.9164C27.2767 40.4385 29.0537 38.4737 30.6437 36.3239C31.2062 35.5645 31.7277 34.774 32.2647 33.9963C32.3313 33.9006 32.3814 33.7948 32.4945 33.5979C31.7806 33.7593 31.1616 33.8723 30.558 34.041C29.3208 34.3883 28.141 34.8706 27.0743 35.6073C26.9877 35.6675 26.8045 35.6529 26.6987 35.6027C26.5547 35.5353 26.4416 35.4003 26.3003 35.2827C27.0753 34.5707 27.9578 34.0893 28.9042 33.7191C30.1231 33.2432 31.3877 32.9387 32.6823 32.7646C33.0114 32.7199 33.2221 32.5695 33.3971 32.2969C34.6261 30.3877 35.9608 28.5543 37.3913 26.791C38.6905 25.19 40.0891 23.6857 41.6828 22.371C42.042 22.0747 42.4094 21.7893 42.8325 21.4511C42.5799 21.3863 42.3775 21.3225 42.1706 21.2842C40.5632 20.987 38.9522 20.7117 37.3102 20.7089C33.6633 20.7035 30.2772 21.5614 27.3396 23.8133C26.0204 24.8253 24.9108 26.0343 24.2781 27.6097C24.0447 28.1905 23.8651 28.7877 23.9709 29.4286C24.1113 30.2801 24.7878 30.8965 25.8572 31.1226C27.2312 31.4125 28.5623 31.201 29.8432 30.6895C32.3477 29.6884 34.2468 27.9151 35.8861 25.8346C36.3456 25.2511 36.7467 24.6184 37.1424 23.9875C37.5372 23.3584 37.3913 23.4432 38.0861 23.7413C37.777 24.2692 37.4779 24.7971 37.1625 25.3149C36.2362 26.8357 35.1248 28.2014 33.7636 29.3602C32.1271 30.7533 30.2799 31.7024 28.1356 31.9987C27.0133 32.1546 25.8918 32.1519 24.8197 31.697C23.7995 31.2639 23.2643 30.4789 23.1722 29.3867C23.061 28.0674 23.525 26.9241 24.238 25.8474C25.3713 24.1361 26.9786 22.9809 28.7209 21.9853C30.9573 20.708 33.3779 20.016 35.9326 19.7535C38.6787 19.4708 41.3992 19.6924 44.1134 20.12C45.6743 20.3661 47.2452 20.5512 48.8288 20.4199C49.8992 20.3306 50.9349 20.0844 51.8657 19.5082C52.0773 19.3769 52.5541 19.5966 52.5514 19.8355C52.5514 19.9103 52.4547 19.9996 52.3818 20.0543C51.2859 20.8776 50.0432 21.369 48.714 21.6589C47.2707 21.9735 45.8192 21.9917 44.3687 21.7228C44.0232 21.6589 43.7834 21.7538 43.5281 21.9808C41.6873 23.6191 39.915 25.3304 38.4854 27.3417C37.5864 28.6071 36.8425 29.9829 36.0347 31.3122C35.8122 31.6778 35.6098 32.0553 35.3482 32.5157C36.0393 32.4099 36.6392 32.3361 37.2318 32.2212C37.611 32.1473 37.9912 32.0425 38.3505 31.9003C38.964 31.6577 39.4053 31.2393 39.6579 30.6002C39.7445 30.3804 40.0344 30.2409 40.2505 30.0477C40.5021 30.7588 40.2842 31.5775 39.7691 32.0261C39.15 32.5649 38.3915 32.7947 37.6147 32.9515C36.8416 33.1074 36.0566 33.2049 35.2743 33.3134C35.0391 33.3462 34.8914 33.4219 34.7519 33.6416C33.8685 35.0275 33.0543 36.4725 32.0386 37.7571C29.0683 41.5134 25.27 43.9805 20.4908 44.802C18.9582 45.0655 17.4156 45.1329 15.8702 44.9269C15.088 44.8229 14.3613 44.5704 13.7222 44.0835C12.547 43.1882 12.8005 41.229 13.4952 40.5297C14.0213 40 14.9494 39.896 15.5539 40.3282C16.0754 40.7011 16.1629 41.5408 15.7335 42.0577C15.3369 42.5345 14.5081 42.5938 14.0532 42.1771C13.973 42.1033 13.8946 42.0276 13.7605 41.9018L13.7624 41.9027Z" fill="url(#paint0_linear_11066_18)"></path>
  <path d="M36.6448 10.7932C36.3986 10.7403 36.1679 10.6637 35.9327 10.6446C34.9134 10.5625 33.8941 10.444 32.8739 10.4376C30.0357 10.4194 27.2541 10.8206 24.601 11.859C21.595 13.0351 18.9757 14.813 16.7538 17.1588C14.1345 19.925 12.3867 23.1771 11.4568 26.8631C10.9325 28.9382 10.8167 31.057 10.9252 33.1914C10.9945 34.5608 11.1267 35.9211 11.475 37.2494C11.6409 37.8831 11.8643 38.5012 12.0539 39.1294C12.1013 39.2871 12.2235 39.4795 11.9682 39.5825C11.6947 39.6937 11.6291 39.4603 11.5753 39.2971C11.3574 38.6325 11.1331 37.9688 10.9653 37.2905C10.3062 34.6155 10.1649 31.9031 10.5058 29.1743C10.8979 26.0362 11.9938 23.1424 13.6795 20.4702C15.5923 17.4369 18.043 14.9415 21.1091 13.0725C23.4522 11.6438 25.9977 10.7385 28.6982 10.2608C30.5381 9.93529 32.3889 9.84503 34.2506 9.99819C34.9143 10.0529 35.5753 10.1514 36.2381 10.2161C36.5627 10.248 36.7369 10.3766 36.6466 10.7932H36.6448Z" fill="url(#paint1_linear_11066_18)"></path>
  <path d="M51.9069 24.0742C52.2014 23.9721 52.35 24.0687 52.4403 24.3495C53.1259 26.4893 53.507 28.6765 53.5927 30.9248C53.7395 34.7486 52.9317 38.3535 51.1228 41.715C48.8791 45.8825 45.7118 49.1409 41.4714 51.319C39.1593 52.507 36.714 53.2145 34.1403 53.5299C32.0698 53.7834 30.0074 53.7159 27.9461 53.4579C27.7728 53.436 27.5905 53.3877 27.4419 53.302C27.3516 53.25 27.3179 53.1005 27.2586 52.9948C27.3616 52.9665 27.4674 52.9054 27.5668 52.9154C28.794 53.0331 30.0193 53.2409 31.2483 53.271C34.287 53.3439 37.2045 52.7504 39.998 51.526C42.9356 50.2396 45.5057 48.4435 47.6437 46.0584C49.51 43.9761 50.9277 41.6165 51.8732 38.9735C52.6016 36.9349 53.0256 34.8397 53.1386 32.6835C53.238 30.7972 53.1404 28.919 52.7119 27.0737C52.4913 26.121 52.2032 25.1837 51.9461 24.2392C51.9324 24.1881 51.9215 24.1353 51.9069 24.0742Z" fill="url(#paint2_linear_11066_18)"></path>
  <path d="M39.6988 12.2557C42.671 11.5254 45.4545 13.3571 46.3507 15.8707C44.5491 17.117 40.2422 14.7894 39.6988 12.2557Z" fill="url(#paint3_linear_11066_18)"></path>
  <path d="M17.6573 47.5973C20.9696 47.0557 23.4412 48.716 24.2946 51.339C22.0855 52.299 18.239 50.1437 17.6573 47.5973Z" fill="url(#paint4_linear_11066_18)"></path>
  <path d="M33.5813 8.91323C34.8377 6.84181 38.2219 5.83345 41.2716 7.6888C40.0709 9.3153 35.7448 10.0583 33.5813 8.91323Z" fill="url(#paint5_linear_11066_18)"></path>
  <path d="M30.4186 54.6898C28.9088 56.991 25.2619 57.5836 22.7246 55.8468C24.0174 54.3005 28.1776 53.5046 30.4186 54.6898Z" fill="url(#paint6_linear_11066_18)"></path>
  <path d="M24.3575 10.0475C24.6428 9.08655 25.1215 8.29974 25.7971 7.63601C27.1145 6.34137 28.7273 5.89189 30.5334 6.02135C30.6884 6.0323 30.8461 6.03138 30.9993 6.05782C31.1105 6.07788 31.2154 6.13532 31.323 6.17543C31.2774 6.28393 31.2601 6.42251 31.1826 6.49727C30.6374 7.01877 30.1204 7.58221 29.5178 8.02987C28.0836 9.09749 26.4453 9.70469 24.6848 9.98824C24.5981 10.0019 24.5115 10.0201 24.3575 10.0475Z" fill="url(#paint7_linear_11066_18)"></path>
  <path d="M39.5895 53.6076C38.7425 56.2826 36.0757 58.0851 32.6823 57.4231C33.3798 55.9097 36.7741 53.7325 39.5895 53.6076Z" fill="url(#paint8_linear_11066_18)"></path>
  <path d="M18.2682 13.1318C18.1524 10.2763 19.8528 8.04348 22.814 7.26579C22.907 9.37915 20.3442 12.5629 18.2682 13.1318Z" fill="url(#paint9_linear_11066_18)"></path>
  <path d="M45.6479 50.441C46.1229 52.775 43.6166 56.0709 41.2288 56.2642C41.1878 55.6807 41.3263 55.1282 41.578 54.6213C42.4195 52.9227 43.5956 51.5214 45.2868 50.6024C45.4008 50.5404 45.523 50.4967 45.6479 50.441Z" fill="url(#paint10_linear_11066_18)"></path>
  <path d="M15.1865 11.5337C15.8849 13.7674 15.1355 17.0232 13.1962 18.4263C12.3556 16.2181 13.0786 12.4874 15.1865 11.5337Z" fill="url(#paint11_linear_11066_18)"></path>
  <path d="M48.8297 52.0048C48.1723 49.4747 48.9336 46.7606 50.7762 45.1486C51.5639 47.9932 51.0032 50.5223 48.8297 52.0048Z" fill="url(#paint12_linear_11066_18)"></path>
  <path d="M9.82105 17.2328C11.309 18.2876 11.6928 22.5535 10.4392 24.1089C9.06797 23.024 8.57838 18.7781 9.82105 17.2328Z" fill="url(#paint13_linear_11066_18)"></path>
  <path d="M53.5798 39.4797C54.9629 40.6895 55.312 44.8178 54.156 46.2957C52.8613 45.4186 52.2806 41.0816 53.5798 39.4797Z" fill="url(#paint14_linear_11066_18)"></path>
  <path d="M33.7446 11.6412C36.1378 11.9575 38.057 12.9869 39.3489 15.082C36.8845 15.4148 34.7146 13.9907 33.7446 11.6412Z" fill="url(#paint15_linear_11066_18)"></path>
  <path d="M30.2717 51.93C27.7718 51.6292 25.4113 50.154 24.6856 48.4546C26.9038 48.2121 29.122 49.3271 30.2717 51.93Z" fill="url(#paint16_linear_11066_18)"></path>
  <path d="M26.0185 12.2924C28.2732 11.3852 30.444 11.6222 32.2109 13.1877C30.5881 14.1194 26.8628 13.731 26.0185 12.2924Z" fill="url(#paint17_linear_11066_18)"></path>
  <path d="M37.9476 51.2419C36.2582 52.2502 33.1747 51.829 31.8336 50.4067C33.4711 49.4348 37.127 49.9345 37.9476 51.2419Z" fill="url(#paint18_linear_11066_18)"></path>
  <path d="M20.0041 15.2916C20.2748 14.8649 20.6632 14.6133 21.0963 14.4866C21.6561 14.3225 22.2378 14.1884 22.8167 14.1447C23.8397 14.0663 24.8608 14.1456 25.8463 14.4729C25.9485 14.5066 26.0478 14.5467 26.1545 14.5869C25.2455 15.9699 22.0317 16.3374 20.0041 15.2916Z" fill="url(#paint19_linear_11066_18)"></path>
  <path d="M7.03756 24.0276C8.15441 24.5145 9.89852 26.6278 9.5621 29.6301C8.014 28.9272 6.76495 26.8266 7.03756 24.0276Z" fill="url(#paint20_linear_11066_18)"></path>
  <path d="M37.8983 49.0381C38.8994 47.5264 42.4095 47.2994 43.9694 48.3005C43.7616 48.6497 43.437 48.8648 43.0796 48.9907C42.6219 49.152 42.1469 49.2961 41.6674 49.3572C40.4448 49.5131 39.2285 49.4584 38.0378 49.101C37.9959 49.0882 37.9567 49.0645 37.8983 49.0381Z" fill="url(#paint21_linear_11066_18)"></path>
  <path d="M56.9139 39.4429C55.384 38.7746 54.0821 35.8124 54.4851 33.9562C56.045 34.6135 57.3533 37.5483 56.9139 39.4429Z" fill="url(#paint22_linear_11066_18)"></path>
  <path d="M12.0138 30.5256C12.0567 29.7187 12.2664 28.9993 12.5991 28.3174C13.0851 27.3209 13.8673 26.6499 14.9085 26.2706C15.1292 26.1903 15.2431 26.2305 15.2067 26.4757C15.0371 27.6227 14.6441 28.6657 13.7807 29.4853C13.2829 29.9585 12.7104 30.3022 12.0138 30.5256Z" fill="url(#paint23_linear_11066_18)"></path>
  <path d="M51.8822 33.1077C51.925 35.0469 50.6468 36.8722 48.9017 37.2952C48.878 35.5483 49.9666 33.7751 51.8822 33.1077Z" fill="url(#paint24_linear_11066_18)"></path>
  <path d="M56.8091 32.6417C55.5108 32.318 54.1305 29.8199 54.29 28.1214C55.7734 28.7149 56.9404 30.6915 56.8091 32.6417Z" fill="url(#paint25_linear_11066_18)"></path>
  <path d="M13.0348 24.7005C13.4232 22.9865 14.9978 21.7739 16.7875 21.8623C16.6316 23.3867 14.8264 24.7515 13.0348 24.7005Z" fill="url(#paint26_linear_11066_18)"></path>
  <path d="M47.2414 41.714C47.5213 39.9617 49.5253 38.7837 50.9257 38.9241C50.8856 40.2963 48.9819 41.7495 47.2414 41.714Z" fill="url(#paint27_linear_11066_18)"></path>
  <path d="M15.6979 19.6925C16.1657 18.0478 18.0666 17.3129 20.0022 17.4889C19.498 18.8939 17.6098 19.7545 15.6979 19.6925Z" fill="url(#paint28_linear_11066_18)"></path>
  <path d="M7.17346 31.5112C8.69511 32.2096 9.81744 33.9236 9.7837 35.7279C8.31675 35.3112 6.9355 33.0976 7.17346 31.5112Z" fill="url(#paint29_linear_11066_18)"></path>
  <path d="M43.9804 46.0979C44.5493 44.5534 46.9471 43.7511 48.2673 43.918C47.6191 45.4223 46.1111 46.2511 43.9804 46.0979Z" fill="url(#paint30_linear_11066_18)"></path>
  <path d="M49.6813 31.4402C49.5217 29.8547 50.5811 28.0486 51.946 27.5791C52.2313 29.1098 51.1099 31.0208 49.6813 31.4402Z" fill="url(#paint31_linear_11066_18)"></path>
  <path d="M13.8938 32.3291C14.1873 33.7031 13.282 35.5803 11.9126 36.0973C11.6874 34.5072 12.6857 32.609 13.8938 32.3291Z" fill="url(#paint32_linear_11066_18)"></path>
  <path d="M39.4918 10.476C39.4973 10.1378 39.7371 9.92353 40.1054 9.929C40.4419 9.93356 40.6506 10.1615 40.6388 10.5125C40.6278 10.8407 40.389 11.0778 40.0644 11.0832C39.7499 11.0887 39.4873 10.8088 39.4918 10.476Z" fill="url(#paint33_linear_11066_18)"></path>
  <path d="M23.9945 52.5053C24.2954 52.5162 24.516 52.767 24.506 53.0879C24.496 53.4097 24.2361 53.6723 23.9416 53.6586C23.6025 53.6422 23.36 53.3897 23.3645 53.0569C23.3691 52.7506 23.6617 52.4935 23.9945 52.5053Z" fill="url(#paint34_linear_11066_18)"></path>
  <path d="M31.6868 55.0916C31.6932 54.7707 31.9475 54.5564 32.3141 54.5637C32.6386 54.5701 32.8428 54.7844 32.841 55.1162C32.8392 55.4353 32.6049 55.6432 32.253 55.6396C31.9065 55.6368 31.6804 55.4189 31.6868 55.0916Z" fill="url(#paint35_linear_11066_18)"></path>
  <path d="M32.282 8.47037C32.2811 8.81409 32.0577 9.05296 31.7396 9.05296C31.4259 9.05296 31.1597 8.77033 31.1661 8.44667C31.1725 8.14033 31.4505 7.90967 31.8088 7.91331C32.1061 7.91605 32.2839 8.12392 32.282 8.47037Z" fill="url(#paint36_linear_11066_18)"></path>
  <path d="M16.9816 14.2549C16.6616 14.2549 16.42 14.0079 16.4191 13.6815C16.4182 13.3687 16.6661 13.1399 17.0108 13.1353C17.3262 13.1308 17.5605 13.3697 17.5496 13.6833C17.5377 14.0106 17.2952 14.2558 16.9816 14.2549Z" fill="url(#paint37_linear_11066_18)"></path>
  <path d="M47.5443 49.9103C47.5397 50.2304 47.341 50.4264 47.0228 50.4246C46.7083 50.4227 46.4448 50.1556 46.4575 49.8511C46.4703 49.5557 46.7374 49.3505 47.093 49.3624C47.3528 49.3715 47.5489 49.6086 47.5443 49.9103Z" fill="url(#paint38_linear_11066_18)"></path>
  <path d="M12.3117 18.8298C12.5944 18.8344 12.7421 18.9857 12.7366 19.2684C12.7311 19.5802 12.5068 19.8236 12.2288 19.8209C11.9653 19.8181 11.7328 19.5465 11.741 19.2492C11.7483 18.9794 11.958 18.8244 12.3117 18.8298Z" fill="url(#paint39_linear_11066_18)"></path>
  <path d="M51.8293 43.8186C52.122 43.8304 52.2998 44.0237 52.2834 44.3118C52.2688 44.5607 52.0609 44.7248 51.771 44.7148C51.4528 44.7048 51.2586 44.5169 51.265 44.2261C51.2714 43.9462 51.4683 43.804 51.8293 43.8186Z" fill="url(#paint40_linear_11066_18)"></path>
  <path d="M23.2252 9.66027C23.4787 9.66027 23.6437 9.83532 23.6455 10.1061C23.6482 10.3869 23.3911 10.634 23.1085 10.6249C22.8815 10.6176 22.7037 10.4033 22.7083 10.1426C22.7128 9.85994 22.9253 9.66027 23.2252 9.66027Z" fill="url(#paint41_linear_11066_18)"></path>
  <path d="M9.09264 30.5747C9.39989 30.5729 9.55123 30.7197 9.55123 31.0187C9.55123 31.284 9.34974 31.4956 9.09537 31.4974C8.83279 31.4992 8.60943 31.2749 8.6076 31.0069C8.60578 30.747 8.79724 30.5766 9.09264 30.5747Z" fill="url(#paint42_linear_11066_18)"></path>
  <path d="M32.4488 12.4362C32.272 12.4399 32.1689 12.2648 32.148 12.0351C32.1233 11.7561 32.3659 11.5482 32.6977 11.5382C32.9649 11.53 33.0834 11.6913 33.1016 11.9266C33.1226 12.1809 32.8317 12.4326 32.4488 12.4362Z" fill="url(#paint43_linear_11066_18)"></path>
  <path d="M25.3987 13.0515C25.395 13.3186 25.1908 13.5402 24.9465 13.511C24.7121 13.4827 24.5188 13.3861 24.5179 13.0989C24.517 12.8099 24.7413 12.5446 24.9847 12.5519C25.23 12.5592 25.4023 12.767 25.3987 13.0515Z" fill="url(#paint44_linear_11066_18)"></path>
  <path d="M12.9135 31.6906C12.898 31.9887 12.7567 32.1419 12.4777 32.1528C12.1923 32.1647 11.9963 31.9678 11.999 31.6815C12.0018 31.3979 12.1887 31.2347 12.505 31.2439C12.8077 31.253 12.8779 31.4663 12.9135 31.6906Z" fill="url(#paint45_linear_11066_18)"></path>
  <path d="M10.2623 25.1968C10.2596 25.505 10.0873 25.6818 9.79734 25.6746C9.53204 25.6682 9.36701 25.4959 9.39072 25.2223C9.4126 24.9753 9.50103 24.7656 9.80099 24.7574C10.0845 24.7492 10.2651 24.9242 10.2623 25.1968Z" fill="url(#paint46_linear_11066_18)"></path>
  <path d="M15.3206 20.4044C15.5923 20.3998 15.7455 20.5576 15.7418 20.8384C15.7391 21.0918 15.5394 21.2879 15.2732 21.2988C15.0052 21.3106 14.8338 21.1338 14.8283 20.8402C14.8228 20.5521 14.9833 20.4108 15.3206 20.4044Z" fill="url(#paint47_linear_11066_18)"></path>
  <path d="M13.4997 25.9121C13.5016 26.2029 13.3265 26.4172 13.0831 26.4218C12.8415 26.4272 12.6236 26.2011 12.6245 25.9468C12.6245 25.6851 12.8506 25.4827 13.136 25.49C13.4104 25.4973 13.4906 25.6751 13.4997 25.9121Z" fill="url(#paint48_linear_11066_18)"></path>
  <path d="M51.3663 37.6377C51.3644 37.8547 51.1237 38.0972 50.8794 38.0953C50.6706 38.0935 50.4563 37.8464 50.4618 37.6149C50.4673 37.3851 50.728 37.1873 51.0161 37.2028C51.265 37.2165 51.3544 37.3778 51.3663 37.6377Z" fill="url(#paint49_linear_11066_18)"></path>
  <path d="M19.3685 15.8123C19.6466 15.8014 19.7369 15.971 19.7387 16.2117C19.7405 16.477 19.5372 16.6976 19.2983 16.7031C19.0749 16.7076 18.8479 16.4578 18.8516 16.2107C18.8552 15.9764 19.0686 15.8105 19.3685 15.8123Z" fill="url(#paint50_linear_11066_18)"></path>
  <path d="M41.2761 53.3989C41.2815 53.6624 41.0427 53.893 40.7783 53.8921C40.5139 53.8903 40.4036 53.7225 40.3817 53.4891C40.358 53.2257 40.5704 53.0406 40.8776 53.0278C41.1493 53.0169 41.2505 53.1728 41.2761 53.3989Z" fill="url(#paint51_linear_11066_18)"></path>
  <path d="M30.9546 51.6036C30.9527 51.3711 31.1506 51.1714 31.405 51.1714C31.6612 51.1714 31.7915 51.3191 31.7815 51.5689C31.7715 51.8215 31.6675 52.0257 31.3885 52.0595C31.1843 52.0841 30.9564 51.8315 30.9546 51.6036Z" fill="url(#paint52_linear_11066_18)"></path>
  <path d="M49.1716 42.7171C49.1624 42.997 49.0421 43.1511 48.7622 43.142C48.5087 43.1338 48.3337 43.0253 48.3164 42.7536C48.3 42.4992 48.5106 42.3178 48.7959 42.326C49.0585 42.3342 49.1661 42.4865 49.1716 42.7171Z" fill="url(#paint53_linear_11066_18)"></path>
  <path d="M54.8771 33.2445C54.6365 33.2135 54.4577 33.1132 54.4632 32.8287C54.4678 32.589 54.6674 32.4303 54.9473 32.4358C55.2154 32.4413 55.3193 32.5817 55.3129 32.8424C55.3056 33.1296 55.1388 33.229 54.8771 33.2445Z" fill="url(#paint54_linear_11066_18)"></path>
  <path d="M39.4729 50.4839C39.4565 50.741 39.3516 50.9233 39.0872 50.9562C38.8621 50.9844 38.6378 50.7611 38.6332 50.5176C38.6277 50.2277 38.8402 50.1283 39.0672 50.1055C39.3179 50.08 39.4456 50.2478 39.4729 50.4839Z" fill="url(#paint55_linear_11066_18)"></path>
  <path d="M51.5412 32.3054C51.2914 32.3109 51.1045 32.1267 51.109 31.8651C51.1136 31.5925 51.2823 31.4849 51.533 31.463C51.8366 31.4365 51.9141 31.6453 51.9405 31.8751C51.9679 32.1185 51.7846 32.2999 51.5412 32.3054Z" fill="url(#paint56_linear_11066_18)"></path>
  <path d="M54.1415 37.9499C54.4624 37.9499 54.581 38.0921 54.5837 38.3429C54.5864 38.5918 54.3713 38.8789 54.1844 38.8097C54.012 38.7458 53.8352 38.5589 53.7659 38.3848C53.692 38.1988 53.9738 37.9545 54.1415 37.9499Z" fill="url(#paint57_linear_11066_18)"></path>
  <path d="M45.1054 47.3195C45.0981 47.5674 44.9148 47.758 44.6942 47.7471C44.49 47.737 44.2438 47.4781 44.2675 47.272C44.3022 46.9703 44.5556 46.921 44.7845 46.9101C45.0425 46.8973 45.0981 47.1025 45.1054 47.3195Z" fill="url(#paint58_linear_11066_18)"></path>
  <defs>
    <linearGradient id="paint0_linear_11066_18" x1="19.4526" y1="6.00046" x2="89.8809" y2="150.651" gradientUnits="userSpaceOnUse">
      <stop offset="0.0125675" stop-color="#E9DAAA"></stop>
      <stop offset="0.125198" stop-color="#FAF8D1"></stop>
      <stop offset="0.247742" stop-color="#D5C6A0"></stop>
      <stop offset="0.416072" stop-color="#8B623D"></stop>
      <stop offset="0.437647" stop-color="#895F3A"></stop>
    </linearGradient>
    <linearGradient id="paint1_linear_11066_18" x1="19.4526" y1="6.00046" x2="89.8809" y2="150.651" gradientUnits="userSpaceOnUse">
      <stop offset="0.0125675" stop-color="#E9DAAA"></stop>
      <stop offset="0.125198" stop-color="#FAF8D1"></stop>
      <stop offset="0.247742" stop-color="#D5C6A0"></stop>
      <stop offset="0.416072" stop-color="#8B623D"></stop>
      <stop offset="0.437647" stop-color="#895F3A"></stop>
    </linearGradient>
    <linearGradient id="paint2_linear_11066_18" x1="19.4526" y1="6.00046" x2="89.8809" y2="150.651" gradientUnits="userSpaceOnUse">
      <stop offset="0.0125675" stop-color="#E9DAAA"></stop>
      <stop offset="0.125198" stop-color="#FAF8D1"></stop>
      <stop offset="0.247742" stop-color="#D5C6A0"></stop>
      <stop offset="0.416072" stop-color="#8B623D"></stop>
      <stop offset="0.437647" stop-color="#895F3A"></stop>
    </linearGradient>
    <linearGradient id="paint3_linear_11066_18" x1="19.4526" y1="6.00046" x2="89.8809" y2="150.651" gradientUnits="userSpaceOnUse">
      <stop offset="0.0125675" stop-color="#E9DAAA"></stop>
      <stop offset="0.125198" stop-color="#FAF8D1"></stop>
      <stop offset="0.247742" stop-color="#D5C6A0"></stop>
      <stop offset="0.416072" stop-color="#8B623D"></stop>
      <stop offset="0.437647" stop-color="#895F3A"></stop>
    </linearGradient>
    <linearGradient id="paint4_linear_11066_18" x1="19.4526" y1="6.00046" x2="89.8809" y2="150.651" gradientUnits="userSpaceOnUse">
      <stop offset="0.0125675" stop-color="#E9DAAA"></stop>
      <stop offset="0.125198" stop-color="#FAF8D1"></stop>
      <stop offset="0.247742" stop-color="#D5C6A0"></stop>
      <stop offset="0.416072" stop-color="#8B623D"></stop>
      <stop offset="0.437647" stop-color="#895F3A"></stop>
    </linearGradient>
    <linearGradient id="paint5_linear_11066_18" x1="19.4526" y1="6.00046" x2="89.8809" y2="150.651" gradientUnits="userSpaceOnUse">
      <stop offset="0.0125675" stop-color="#E9DAAA"></stop>
      <stop offset="0.125198" stop-color="#FAF8D1"></stop>
      <stop offset="0.247742" stop-color="#D5C6A0"></stop>
      <stop offset="0.416072" stop-color="#8B623D"></stop>
      <stop offset="0.437647" stop-color="#895F3A"></stop>
    </linearGradient>
    <linearGradient id="paint6_linear_11066_18" x1="19.4526" y1="6.00046" x2="89.8809" y2="150.651" gradientUnits="userSpaceOnUse">
      <stop offset="0.0125675" stop-color="#E9DAAA"></stop>
      <stop offset="0.125198" stop-color="#FAF8D1"></stop>
      <stop offset="0.247742" stop-color="#D5C6A0"></stop>
      <stop offset="0.416072" stop-color="#8B623D"></stop>
      <stop offset="0.437647" stop-color="#895F3A"></stop>
    </linearGradient>
    <linearGradient id="paint7_linear_11066_18" x1="19.4526" y1="6.00046" x2="89.8809" y2="150.651" gradientUnits="userSpaceOnUse">
      <stop offset="0.0125675" stop-color="#E9DAAA"></stop>
      <stop offset="0.125198" stop-color="#FAF8D1"></stop>
      <stop offset="0.247742" stop-color="#D5C6A0"></stop>
      <stop offset="0.416072" stop-color="#8B623D"></stop>
      <stop offset="0.437647" stop-color="#895F3A"></stop>
    </linearGradient>
    <linearGradient id="paint8_linear_11066_18" x1="19.4526" y1="6.00046" x2="89.8809" y2="150.651" gradientUnits="userSpaceOnUse">
      <stop offset="0.0125675" stop-color="#E9DAAA"></stop>
      <stop offset="0.125198" stop-color="#FAF8D1"></stop>
      <stop offset="0.247742" stop-color="#D5C6A0"></stop>
      <stop offset="0.416072" stop-color="#8B623D"></stop>
      <stop offset="0.437647" stop-color="#895F3A"></stop>
    </linearGradient>
    <linearGradient id="paint9_linear_11066_18" x1="19.4526" y1="6.00046" x2="89.8809" y2="150.651" gradientUnits="userSpaceOnUse">
      <stop offset="0.0125675" stop-color="#E9DAAA"></stop>
      <stop offset="0.125198" stop-color="#FAF8D1"></stop>
      <stop offset="0.247742" stop-color="#D5C6A0"></stop>
      <stop offset="0.416072" stop-color="#8B623D"></stop>
      <stop offset="0.437647" stop-color="#895F3A"></stop>
    </linearGradient>
    <linearGradient id="paint10_linear_11066_18" x1="19.4526" y1="6.00046" x2="89.8809" y2="150.651" gradientUnits="userSpaceOnUse">
      <stop offset="0.0125675" stop-color="#E9DAAA"></stop>
      <stop offset="0.125198" stop-color="#FAF8D1"></stop>
      <stop offset="0.247742" stop-color="#D5C6A0"></stop>
      <stop offset="0.416072" stop-color="#8B623D"></stop>
      <stop offset="0.437647" stop-color="#895F3A"></stop>
    </linearGradient>
    <linearGradient id="paint11_linear_11066_18" x1="19.4526" y1="6.00046" x2="89.8809" y2="150.651" gradientUnits="userSpaceOnUse">
      <stop offset="0.0125675" stop-color="#E9DAAA"></stop>
      <stop offset="0.125198" stop-color="#FAF8D1"></stop>
      <stop offset="0.247742" stop-color="#D5C6A0"></stop>
      <stop offset="0.416072" stop-color="#8B623D"></stop>
      <stop offset="0.437647" stop-color="#895F3A"></stop>
    </linearGradient>
    <linearGradient id="paint12_linear_11066_18" x1="19.4526" y1="6.00046" x2="89.8809" y2="150.651" gradientUnits="userSpaceOnUse">
      <stop offset="0.0125675" stop-color="#E9DAAA"></stop>
      <stop offset="0.125198" stop-color="#FAF8D1"></stop>
      <stop offset="0.247742" stop-color="#D5C6A0"></stop>
      <stop offset="0.416072" stop-color="#8B623D"></stop>
      <stop offset="0.437647" stop-color="#895F3A"></stop>
    </linearGradient>
    <linearGradient id="paint13_linear_11066_18" x1="19.4526" y1="6.00046" x2="89.8809" y2="150.651" gradientUnits="userSpaceOnUse">
      <stop offset="0.0125675" stop-color="#E9DAAA"></stop>
      <stop offset="0.125198" stop-color="#FAF8D1"></stop>
      <stop offset="0.247742" stop-color="#D5C6A0"></stop>
      <stop offset="0.416072" stop-color="#8B623D"></stop>
      <stop offset="0.437647" stop-color="#895F3A"></stop>
    </linearGradient>
    <linearGradient id="paint14_linear_11066_18" x1="19.4526" y1="6.00046" x2="89.8809" y2="150.651" gradientUnits="userSpaceOnUse">
      <stop offset="0.0125675" stop-color="#E9DAAA"></stop>
      <stop offset="0.125198" stop-color="#FAF8D1"></stop>
      <stop offset="0.247742" stop-color="#D5C6A0"></stop>
      <stop offset="0.416072" stop-color="#8B623D"></stop>
      <stop offset="0.437647" stop-color="#895F3A"></stop>
    </linearGradient>
    <linearGradient id="paint15_linear_11066_18" x1="19.4526" y1="6.00046" x2="89.8809" y2="150.651" gradientUnits="userSpaceOnUse">
      <stop offset="0.0125675" stop-color="#E9DAAA"></stop>
      <stop offset="0.125198" stop-color="#FAF8D1"></stop>
      <stop offset="0.247742" stop-color="#D5C6A0"></stop>
      <stop offset="0.416072" stop-color="#8B623D"></stop>
      <stop offset="0.437647" stop-color="#895F3A"></stop>
    </linearGradient>
    <linearGradient id="paint16_linear_11066_18" x1="19.4526" y1="6.00046" x2="89.8809" y2="150.651" gradientUnits="userSpaceOnUse">
      <stop offset="0.0125675" stop-color="#E9DAAA"></stop>
      <stop offset="0.125198" stop-color="#FAF8D1"></stop>
      <stop offset="0.247742" stop-color="#D5C6A0"></stop>
      <stop offset="0.416072" stop-color="#8B623D"></stop>
      <stop offset="0.437647" stop-color="#895F3A"></stop>
    </linearGradient>
    <linearGradient id="paint17_linear_11066_18" x1="19.4526" y1="6.00046" x2="89.8809" y2="150.651" gradientUnits="userSpaceOnUse">
      <stop offset="0.0125675" stop-color="#E9DAAA"></stop>
      <stop offset="0.125198" stop-color="#FAF8D1"></stop>
      <stop offset="0.247742" stop-color="#D5C6A0"></stop>
      <stop offset="0.416072" stop-color="#8B623D"></stop>
      <stop offset="0.437647" stop-color="#895F3A"></stop>
    </linearGradient>
    <linearGradient id="paint18_linear_11066_18" x1="19.4526" y1="6.00046" x2="89.8809" y2="150.651" gradientUnits="userSpaceOnUse">
      <stop offset="0.0125675" stop-color="#E9DAAA"></stop>
      <stop offset="0.125198" stop-color="#FAF8D1"></stop>
      <stop offset="0.247742" stop-color="#D5C6A0"></stop>
      <stop offset="0.416072" stop-color="#8B623D"></stop>
      <stop offset="0.437647" stop-color="#895F3A"></stop>
    </linearGradient>
    <linearGradient id="paint19_linear_11066_18" x1="19.4526" y1="6.00046" x2="89.8809" y2="150.651" gradientUnits="userSpaceOnUse">
      <stop offset="0.0125675" stop-color="#E9DAAA"></stop>
      <stop offset="0.125198" stop-color="#FAF8D1"></stop>
      <stop offset="0.247742" stop-color="#D5C6A0"></stop>
      <stop offset="0.416072" stop-color="#8B623D"></stop>
      <stop offset="0.437647" stop-color="#895F3A"></stop>
    </linearGradient>
    <linearGradient id="paint20_linear_11066_18" x1="19.4526" y1="6.00046" x2="89.8809" y2="150.651" gradientUnits="userSpaceOnUse">
      <stop offset="0.0125675" stop-color="#E9DAAA"></stop>
      <stop offset="0.125198" stop-color="#FAF8D1"></stop>
      <stop offset="0.247742" stop-color="#D5C6A0"></stop>
      <stop offset="0.416072" stop-color="#8B623D"></stop>
      <stop offset="0.437647" stop-color="#895F3A"></stop>
    </linearGradient>
    <linearGradient id="paint21_linear_11066_18" x1="19.4526" y1="6.00046" x2="89.8809" y2="150.651" gradientUnits="userSpaceOnUse">
      <stop offset="0.0125675" stop-color="#E9DAAA"></stop>
      <stop offset="0.125198" stop-color="#FAF8D1"></stop>
      <stop offset="0.247742" stop-color="#D5C6A0"></stop>
      <stop offset="0.416072" stop-color="#8B623D"></stop>
      <stop offset="0.437647" stop-color="#895F3A"></stop>
    </linearGradient>
    <linearGradient id="paint22_linear_11066_18" x1="19.4526" y1="6.00046" x2="89.8809" y2="150.651" gradientUnits="userSpaceOnUse">
      <stop offset="0.0125675" stop-color="#E9DAAA"></stop>
      <stop offset="0.125198" stop-color="#FAF8D1"></stop>
      <stop offset="0.247742" stop-color="#D5C6A0"></stop>
      <stop offset="0.416072" stop-color="#8B623D"></stop>
      <stop offset="0.437647" stop-color="#895F3A"></stop>
    </linearGradient>
    <linearGradient id="paint23_linear_11066_18" x1="19.4526" y1="6.00046" x2="89.8809" y2="150.651" gradientUnits="userSpaceOnUse">
      <stop offset="0.0125675" stop-color="#E9DAAA"></stop>
      <stop offset="0.125198" stop-color="#FAF8D1"></stop>
      <stop offset="0.247742" stop-color="#D5C6A0"></stop>
      <stop offset="0.416072" stop-color="#8B623D"></stop>
      <stop offset="0.437647" stop-color="#895F3A"></stop>
    </linearGradient>
    <linearGradient id="paint24_linear_11066_18" x1="19.4526" y1="6.00046" x2="89.8809" y2="150.651" gradientUnits="userSpaceOnUse">
      <stop offset="0.0125675" stop-color="#E9DAAA"></stop>
      <stop offset="0.125198" stop-color="#FAF8D1"></stop>
      <stop offset="0.247742" stop-color="#D5C6A0"></stop>
      <stop offset="0.416072" stop-color="#8B623D"></stop>
      <stop offset="0.437647" stop-color="#895F3A"></stop>
    </linearGradient>
    <linearGradient id="paint25_linear_11066_18" x1="19.4526" y1="6.00046" x2="89.8809" y2="150.651" gradientUnits="userSpaceOnUse">
      <stop offset="0.0125675" stop-color="#E9DAAA"></stop>
      <stop offset="0.125198" stop-color="#FAF8D1"></stop>
      <stop offset="0.247742" stop-color="#D5C6A0"></stop>
      <stop offset="0.416072" stop-color="#8B623D"></stop>
      <stop offset="0.437647" stop-color="#895F3A"></stop>
    </linearGradient>
    <linearGradient id="paint26_linear_11066_18" x1="19.4526" y1="6.00046" x2="89.8809" y2="150.651" gradientUnits="userSpaceOnUse">
      <stop offset="0.0125675" stop-color="#E9DAAA"></stop>
      <stop offset="0.125198" stop-color="#FAF8D1"></stop>
      <stop offset="0.247742" stop-color="#D5C6A0"></stop>
      <stop offset="0.416072" stop-color="#8B623D"></stop>
      <stop offset="0.437647" stop-color="#895F3A"></stop>
    </linearGradient>
    <linearGradient id="paint27_linear_11066_18" x1="19.4526" y1="6.00046" x2="89.8809" y2="150.651" gradientUnits="userSpaceOnUse">
      <stop offset="0.0125675" stop-color="#E9DAAA"></stop>
      <stop offset="0.125198" stop-color="#FAF8D1"></stop>
      <stop offset="0.247742" stop-color="#D5C6A0"></stop>
      <stop offset="0.416072" stop-color="#8B623D"></stop>
      <stop offset="0.437647" stop-color="#895F3A"></stop>
    </linearGradient>
    <linearGradient id="paint28_linear_11066_18" x1="19.4526" y1="6.00046" x2="89.8809" y2="150.651" gradientUnits="userSpaceOnUse">
      <stop offset="0.0125675" stop-color="#E9DAAA"></stop>
      <stop offset="0.125198" stop-color="#FAF8D1"></stop>
      <stop offset="0.247742" stop-color="#D5C6A0"></stop>
      <stop offset="0.416072" stop-color="#8B623D"></stop>
      <stop offset="0.437647" stop-color="#895F3A"></stop>
    </linearGradient>
    <linearGradient id="paint29_linear_11066_18" x1="19.4526" y1="6.00046" x2="89.8809" y2="150.651" gradientUnits="userSpaceOnUse">
      <stop offset="0.0125675" stop-color="#E9DAAA"></stop>
      <stop offset="0.125198" stop-color="#FAF8D1"></stop>
      <stop offset="0.247742" stop-color="#D5C6A0"></stop>
      <stop offset="0.416072" stop-color="#8B623D"></stop>
      <stop offset="0.437647" stop-color="#895F3A"></stop>
    </linearGradient>
    <linearGradient id="paint30_linear_11066_18" x1="19.4526" y1="6.00046" x2="89.8809" y2="150.651" gradientUnits="userSpaceOnUse">
      <stop offset="0.0125675" stop-color="#E9DAAA"></stop>
      <stop offset="0.125198" stop-color="#FAF8D1"></stop>
      <stop offset="0.247742" stop-color="#D5C6A0"></stop>
      <stop offset="0.416072" stop-color="#8B623D"></stop>
      <stop offset="0.437647" stop-color="#895F3A"></stop>
    </linearGradient>
    <linearGradient id="paint31_linear_11066_18" x1="19.4526" y1="6.00046" x2="89.8809" y2="150.651" gradientUnits="userSpaceOnUse">
      <stop offset="0.0125675" stop-color="#E9DAAA"></stop>
      <stop offset="0.125198" stop-color="#FAF8D1"></stop>
      <stop offset="0.247742" stop-color="#D5C6A0"></stop>
      <stop offset="0.416072" stop-color="#8B623D"></stop>
      <stop offset="0.437647" stop-color="#895F3A"></stop>
    </linearGradient>
    <linearGradient id="paint32_linear_11066_18" x1="19.4526" y1="6.00046" x2="89.8809" y2="150.651" gradientUnits="userSpaceOnUse">
      <stop offset="0.0125675" stop-color="#E9DAAA"></stop>
      <stop offset="0.125198" stop-color="#FAF8D1"></stop>
      <stop offset="0.247742" stop-color="#D5C6A0"></stop>
      <stop offset="0.416072" stop-color="#8B623D"></stop>
      <stop offset="0.437647" stop-color="#895F3A"></stop>
    </linearGradient>
    <linearGradient id="paint33_linear_11066_18" x1="19.4526" y1="6.00046" x2="89.8809" y2="150.651" gradientUnits="userSpaceOnUse">
      <stop offset="0.0125675" stop-color="#E9DAAA"></stop>
      <stop offset="0.125198" stop-color="#FAF8D1"></stop>
      <stop offset="0.247742" stop-color="#D5C6A0"></stop>
      <stop offset="0.416072" stop-color="#8B623D"></stop>
      <stop offset="0.437647" stop-color="#895F3A"></stop>
    </linearGradient>
    <linearGradient id="paint34_linear_11066_18" x1="19.4526" y1="6.00046" x2="89.8809" y2="150.651" gradientUnits="userSpaceOnUse">
      <stop offset="0.0125675" stop-color="#E9DAAA"></stop>
      <stop offset="0.125198" stop-color="#FAF8D1"></stop>
      <stop offset="0.247742" stop-color="#D5C6A0"></stop>
      <stop offset="0.416072" stop-color="#8B623D"></stop>
      <stop offset="0.437647" stop-color="#895F3A"></stop>
    </linearGradient>
    <linearGradient id="paint35_linear_11066_18" x1="19.4526" y1="6.00046" x2="89.8809" y2="150.651" gradientUnits="userSpaceOnUse">
      <stop offset="0.0125675" stop-color="#E9DAAA"></stop>
      <stop offset="0.125198" stop-color="#FAF8D1"></stop>
      <stop offset="0.247742" stop-color="#D5C6A0"></stop>
      <stop offset="0.416072" stop-color="#8B623D"></stop>
      <stop offset="0.437647" stop-color="#895F3A"></stop>
    </linearGradient>
    <linearGradient id="paint36_linear_11066_18" x1="19.4526" y1="6.00046" x2="89.8809" y2="150.651" gradientUnits="userSpaceOnUse">
      <stop offset="0.0125675" stop-color="#E9DAAA"></stop>
      <stop offset="0.125198" stop-color="#FAF8D1"></stop>
      <stop offset="0.247742" stop-color="#D5C6A0"></stop>
      <stop offset="0.416072" stop-color="#8B623D"></stop>
      <stop offset="0.437647" stop-color="#895F3A"></stop>
    </linearGradient>
    <linearGradient id="paint37_linear_11066_18" x1="19.4526" y1="6.00046" x2="89.8809" y2="150.651" gradientUnits="userSpaceOnUse">
      <stop offset="0.0125675" stop-color="#E9DAAA"></stop>
      <stop offset="0.125198" stop-color="#FAF8D1"></stop>
      <stop offset="0.247742" stop-color="#D5C6A0"></stop>
      <stop offset="0.416072" stop-color="#8B623D"></stop>
      <stop offset="0.437647" stop-color="#895F3A"></stop>
    </linearGradient>
    <linearGradient id="paint38_linear_11066_18" x1="19.4526" y1="6.00046" x2="89.8809" y2="150.651" gradientUnits="userSpaceOnUse">
      <stop offset="0.0125675" stop-color="#E9DAAA"></stop>
      <stop offset="0.125198" stop-color="#FAF8D1"></stop>
      <stop offset="0.247742" stop-color="#D5C6A0"></stop>
      <stop offset="0.416072" stop-color="#8B623D"></stop>
      <stop offset="0.437647" stop-color="#895F3A"></stop>
    </linearGradient>
    <linearGradient id="paint39_linear_11066_18" x1="19.4526" y1="6.00046" x2="89.8809" y2="150.651" gradientUnits="userSpaceOnUse">
      <stop offset="0.0125675" stop-color="#E9DAAA"></stop>
      <stop offset="0.125198" stop-color="#FAF8D1"></stop>
      <stop offset="0.247742" stop-color="#D5C6A0"></stop>
      <stop offset="0.416072" stop-color="#8B623D"></stop>
      <stop offset="0.437647" stop-color="#895F3A"></stop>
    </linearGradient>
    <linearGradient id="paint40_linear_11066_18" x1="19.4526" y1="6.00046" x2="89.8809" y2="150.651" gradientUnits="userSpaceOnUse">
      <stop offset="0.0125675" stop-color="#E9DAAA"></stop>
      <stop offset="0.125198" stop-color="#FAF8D1"></stop>
      <stop offset="0.247742" stop-color="#D5C6A0"></stop>
      <stop offset="0.416072" stop-color="#8B623D"></stop>
      <stop offset="0.437647" stop-color="#895F3A"></stop>
    </linearGradient>
    <linearGradient id="paint41_linear_11066_18" x1="19.4526" y1="6.00046" x2="89.8809" y2="150.651" gradientUnits="userSpaceOnUse">
      <stop offset="0.0125675" stop-color="#E9DAAA"></stop>
      <stop offset="0.125198" stop-color="#FAF8D1"></stop>
      <stop offset="0.247742" stop-color="#D5C6A0"></stop>
      <stop offset="0.416072" stop-color="#8B623D"></stop>
      <stop offset="0.437647" stop-color="#895F3A"></stop>
    </linearGradient>
    <linearGradient id="paint42_linear_11066_18" x1="19.4526" y1="6.00046" x2="89.8809" y2="150.651" gradientUnits="userSpaceOnUse">
      <stop offset="0.0125675" stop-color="#E9DAAA"></stop>
      <stop offset="0.125198" stop-color="#FAF8D1"></stop>
      <stop offset="0.247742" stop-color="#D5C6A0"></stop>
      <stop offset="0.416072" stop-color="#8B623D"></stop>
      <stop offset="0.437647" stop-color="#895F3A"></stop>
    </linearGradient>
    <linearGradient id="paint43_linear_11066_18" x1="19.4526" y1="6.00046" x2="89.8809" y2="150.651" gradientUnits="userSpaceOnUse">
      <stop offset="0.0125675" stop-color="#E9DAAA"></stop>
      <stop offset="0.125198" stop-color="#FAF8D1"></stop>
      <stop offset="0.247742" stop-color="#D5C6A0"></stop>
      <stop offset="0.416072" stop-color="#8B623D"></stop>
      <stop offset="0.437647" stop-color="#895F3A"></stop>
    </linearGradient>
    <linearGradient id="paint44_linear_11066_18" x1="19.4526" y1="6.00046" x2="89.8809" y2="150.651" gradientUnits="userSpaceOnUse">
      <stop offset="0.0125675" stop-color="#E9DAAA"></stop>
      <stop offset="0.125198" stop-color="#FAF8D1"></stop>
      <stop offset="0.247742" stop-color="#D5C6A0"></stop>
      <stop offset="0.416072" stop-color="#8B623D"></stop>
      <stop offset="0.437647" stop-color="#895F3A"></stop>
    </linearGradient>
    <linearGradient id="paint45_linear_11066_18" x1="19.4526" y1="6.00046" x2="89.8809" y2="150.651" gradientUnits="userSpaceOnUse">
      <stop offset="0.0125675" stop-color="#E9DAAA"></stop>
      <stop offset="0.125198" stop-color="#FAF8D1"></stop>
      <stop offset="0.247742" stop-color="#D5C6A0"></stop>
      <stop offset="0.416072" stop-color="#8B623D"></stop>
      <stop offset="0.437647" stop-color="#895F3A"></stop>
    </linearGradient>
    <linearGradient id="paint46_linear_11066_18" x1="19.4526" y1="6.00046" x2="89.8809" y2="150.651" gradientUnits="userSpaceOnUse">
      <stop offset="0.0125675" stop-color="#E9DAAA"></stop>
      <stop offset="0.125198" stop-color="#FAF8D1"></stop>
      <stop offset="0.247742" stop-color="#D5C6A0"></stop>
      <stop offset="0.416072" stop-color="#8B623D"></stop>
      <stop offset="0.437647" stop-color="#895F3A"></stop>
    </linearGradient>
    <linearGradient id="paint47_linear_11066_18" x1="19.4526" y1="6.00046" x2="89.8809" y2="150.651" gradientUnits="userSpaceOnUse">
      <stop offset="0.0125675" stop-color="#E9DAAA"></stop>
      <stop offset="0.125198" stop-color="#FAF8D1"></stop>
      <stop offset="0.247742" stop-color="#D5C6A0"></stop>
      <stop offset="0.416072" stop-color="#8B623D"></stop>
      <stop offset="0.437647" stop-color="#895F3A"></stop>
    </linearGradient>
    <linearGradient id="paint48_linear_11066_18" x1="19.4526" y1="6.00046" x2="89.8809" y2="150.651" gradientUnits="userSpaceOnUse">
      <stop offset="0.0125675" stop-color="#E9DAAA"></stop>
      <stop offset="0.125198" stop-color="#FAF8D1"></stop>
      <stop offset="0.247742" stop-color="#D5C6A0"></stop>
      <stop offset="0.416072" stop-color="#8B623D"></stop>
      <stop offset="0.437647" stop-color="#895F3A"></stop>
    </linearGradient>
    <linearGradient id="paint49_linear_11066_18" x1="19.4526" y1="6.00046" x2="89.8809" y2="150.651" gradientUnits="userSpaceOnUse">
      <stop offset="0.0125675" stop-color="#E9DAAA"></stop>
      <stop offset="0.125198" stop-color="#FAF8D1"></stop>
      <stop offset="0.247742" stop-color="#D5C6A0"></stop>
      <stop offset="0.416072" stop-color="#8B623D"></stop>
      <stop offset="0.437647" stop-color="#895F3A"></stop>
    </linearGradient>
    <linearGradient id="paint50_linear_11066_18" x1="19.4526" y1="6.00046" x2="89.8809" y2="150.651" gradientUnits="userSpaceOnUse">
      <stop offset="0.0125675" stop-color="#E9DAAA"></stop>
      <stop offset="0.125198" stop-color="#FAF8D1"></stop>
      <stop offset="0.247742" stop-color="#D5C6A0"></stop>
      <stop offset="0.416072" stop-color="#8B623D"></stop>
      <stop offset="0.437647" stop-color="#895F3A"></stop>
    </linearGradient>
    <linearGradient id="paint51_linear_11066_18" x1="19.4526" y1="6.00046" x2="89.8809" y2="150.651" gradientUnits="userSpaceOnUse">
      <stop offset="0.0125675" stop-color="#E9DAAA"></stop>
      <stop offset="0.125198" stop-color="#FAF8D1"></stop>
      <stop offset="0.247742" stop-color="#D5C6A0"></stop>
      <stop offset="0.416072" stop-color="#8B623D"></stop>
      <stop offset="0.437647" stop-color="#895F3A"></stop>
    </linearGradient>
    <linearGradient id="paint52_linear_11066_18" x1="19.4526" y1="6.00046" x2="89.8809" y2="150.651" gradientUnits="userSpaceOnUse">
      <stop offset="0.0125675" stop-color="#E9DAAA"></stop>
      <stop offset="0.125198" stop-color="#FAF8D1"></stop>
      <stop offset="0.247742" stop-color="#D5C6A0"></stop>
      <stop offset="0.416072" stop-color="#8B623D"></stop>
      <stop offset="0.437647" stop-color="#895F3A"></stop>
    </linearGradient>
    <linearGradient id="paint53_linear_11066_18" x1="19.4526" y1="6.00046" x2="89.8809" y2="150.651" gradientUnits="userSpaceOnUse">
      <stop offset="0.0125675" stop-color="#E9DAAA"></stop>
      <stop offset="0.125198" stop-color="#FAF8D1"></stop>
      <stop offset="0.247742" stop-color="#D5C6A0"></stop>
      <stop offset="0.416072" stop-color="#8B623D"></stop>
      <stop offset="0.437647" stop-color="#895F3A"></stop>
    </linearGradient>
    <linearGradient id="paint54_linear_11066_18" x1="19.4526" y1="6.00046" x2="89.8809" y2="150.651" gradientUnits="userSpaceOnUse">
      <stop offset="0.0125675" stop-color="#E9DAAA"></stop>
      <stop offset="0.125198" stop-color="#FAF8D1"></stop>
      <stop offset="0.247742" stop-color="#D5C6A0"></stop>
      <stop offset="0.416072" stop-color="#8B623D"></stop>
      <stop offset="0.437647" stop-color="#895F3A"></stop>
    </linearGradient>
    <linearGradient id="paint55_linear_11066_18" x1="19.4526" y1="6.00046" x2="89.8809" y2="150.651" gradientUnits="userSpaceOnUse">
      <stop offset="0.0125675" stop-color="#E9DAAA"></stop>
      <stop offset="0.125198" stop-color="#FAF8D1"></stop>
      <stop offset="0.247742" stop-color="#D5C6A0"></stop>
      <stop offset="0.416072" stop-color="#8B623D"></stop>
      <stop offset="0.437647" stop-color="#895F3A"></stop>
    </linearGradient>
    <linearGradient id="paint56_linear_11066_18" x1="19.4526" y1="6.00046" x2="89.8809" y2="150.651" gradientUnits="userSpaceOnUse">
      <stop offset="0.0125675" stop-color="#E9DAAA"></stop>
      <stop offset="0.125198" stop-color="#FAF8D1"></stop>
      <stop offset="0.247742" stop-color="#D5C6A0"></stop>
      <stop offset="0.416072" stop-color="#8B623D"></stop>
      <stop offset="0.437647" stop-color="#895F3A"></stop>
    </linearGradient>
    <linearGradient id="paint57_linear_11066_18" x1="19.4526" y1="6.00046" x2="89.8809" y2="150.651" gradientUnits="userSpaceOnUse">
      <stop offset="0.0125675" stop-color="#E9DAAA"></stop>
      <stop offset="0.125198" stop-color="#FAF8D1"></stop>
      <stop offset="0.247742" stop-color="#D5C6A0"></stop>
      <stop offset="0.416072" stop-color="#8B623D"></stop>
      <stop offset="0.437647" stop-color="#895F3A"></stop>
    </linearGradient>
    <linearGradient id="paint58_linear_11066_18" x1="19.4526" y1="6.00046" x2="89.8809" y2="150.651" gradientUnits="userSpaceOnUse">
      <stop offset="0.0125675" stop-color="#E9DAAA"></stop>
      <stop offset="0.125198" stop-color="#FAF8D1"></stop>
      <stop offset="0.247742" stop-color="#D5C6A0"></stop>
      <stop offset="0.416072" stop-color="#8B623D"></stop>
      <stop offset="0.437647" stop-color="#895F3A"></stop>
    </linearGradient>
  </defs>
</svg>
